<svg width="48" height="48" viewBox="0 0 48 48" fill="none" xmlns="http://www.w3.org/2000/svg">
<path d="M2.86126 23.9436C2.73094 24.2717 2.34282 33.9467 2.34282 33.9467C8.70282 31.9592 11.2031 34.9874 14.2125 41.503L23.6344 40.153C27.0375 30.7592 29.9906 30.5624 32.7938 33.5717L34.5844 33.4311C36.0938 28.7999 39.0563 22.7624 42.5438 16.1999L45.6563 14.6624L44.3531 11.8592L40.1906 6.6383L37.1719 9.12924C31.8281 6.52767 29.3344 8.21986 27.0844 10.2842C23.3719 7.73049 20.325 7.7033 17.775 9.57174C16.8094 5.62767 7.48032 5.12049 7.28063 10.153C5.05782 11.3436 5.57438 13.6592 5.13938 15.5905C6.35907 18.6561 5.36438 21.0561 2.86126 23.9436Z" fill="#FBFBFB"/>
<g clip-path="url(#clip0_252_2483)">
<path d="M13.4304 19.0866L17.8619 20.5113L22.8823 17.0903L15.825 17.0808C15.7557 17.0818 15.688 17.1013 15.6287 17.1372L13.359 18.353C13.2885 18.3894 13.2304 18.4461 13.1925 18.5158C13.1545 18.5855 13.1383 18.665 13.146 18.744C13.1537 18.823 13.1849 18.8979 13.2356 18.959C13.2863 19.0201 13.3542 19.0645 13.4304 19.0866Z" fill="#193028"/>
<path d="M35.5282 15.7496L30.6621 14.5453C30.2529 14.4435 29.8266 14.431 29.412 14.5085C28.9975 14.586 28.6046 14.7518 28.2598 14.9946L13.1427 25.3025L9.59455 25.0404C9.39125 25.0274 9.189 25.0786 9.01635 25.1867C8.84371 25.2948 8.70938 25.4545 8.63235 25.643C8.55532 25.8316 8.53948 26.0396 8.58705 26.2377C8.63463 26.4358 8.74322 26.6139 8.8975 26.747L12.2747 29.5951C12.3303 29.6427 12.3972 29.6753 12.4689 29.6897C12.5407 29.7042 12.615 29.6999 12.6847 29.6774C13.6834 29.3261 17.4192 27.4851 21.8366 25.2288L22.4389 34.2031C22.4439 34.2808 22.4701 34.3557 22.5146 34.4196C22.5591 34.4835 22.6202 34.5341 22.6913 34.5659C22.7624 34.5976 22.8408 34.6094 22.9181 34.5998C22.9954 34.5903 23.0687 34.5598 23.1299 34.5117L25.122 32.953C25.2311 32.867 25.3064 32.7452 25.3346 32.6092L27.4871 22.3325C30.6486 20.6999 33.6686 19.1175 35.7953 17.9986C36.0159 17.887 36.1968 17.7103 36.3136 17.4925C36.4304 17.2746 36.4774 17.0261 36.4482 16.7807C36.4191 16.5352 36.3152 16.3046 36.1506 16.1202C35.986 15.9358 35.7688 15.8064 35.5282 15.7496Z" fill="#193028"/>
</g>
<defs>
<clipPath id="clip0_252_2483">
<rect width="28" height="28" fill="white" transform="translate(8.83972 10) rotate(1.71857)"/>
</clipPath>
</defs>
</svg>
