<svg width="44" height="36" viewBox="0 0 44 36" fill="none" xmlns="http://www.w3.org/2000/svg">
<path d="M0.861257 17.9436C0.730944 18.2717 0.342819 27.9467 0.342819 27.9467C6.70282 25.9592 9.20313 28.9874 12.2125 35.503L21.6344 34.153C25.0375 24.7592 27.9906 24.5624 30.7938 27.5717L32.5844 27.4311C34.0938 22.7999 37.0563 16.7624 40.5438 10.1999L43.6563 8.66236L42.3531 5.85924L38.1906 0.638299L35.1719 3.12924C29.8281 0.527674 27.3344 2.21986 25.0844 4.28424C21.3719 1.73049 18.325 1.7033 15.775 3.57174C14.8094 -0.372326 5.48032 -0.879513 5.28063 4.15299C3.05782 5.34361 3.57438 7.65924 3.13938 9.59049C4.35907 12.6561 3.36438 15.0561 0.861257 17.9436Z" fill="#FBFBFB"/>
</svg>
